<svg xmlns="http://www.w3.org/2000/svg" width="25" height="25" viewBox="0 0 140 140" fill="none">
<path d="M12.5 103.962L0 139.962L38.5 128.962C72.5 144.162 102 131.295 112.5 122.962C123 115.295 142.9 92.1618 138.5 60.9618C134.1 29.7618 110.667 11.2952 99.5 5.96183C85.5 -1.03817 50.3 -7.63817 21.5 21.9618C-7.3 51.5618 3.5 88.9618 12.5 103.962Z" fill="white"/>
<path d="M24.9999 101.962L17.4999 123.962L39.9999 116.462C59.9999 130.062 84.6666 125.462 94.4999 121.462C104.333 117.962 124.8 103.962 128 75.9619C132 40.9619 108 22.9619 94.4999 16.4619C80.9999 9.96185 47.9999 4.46185 24.9999 35.9619C6.59992 61.1619 17.3333 90.4619 24.9999 101.962Z" fill="#12990A"/>
<path d="M52.0001 40.4618C50.0001 39.2618 45.5001 39.9618 43.5001 40.4618C41.0001 41.9618 32.5001 46.9618 38.5001 64.9618C50.5001 88.5618 71.5001 98.7952 80.5001 100.962C83.3334 102.295 90.7001 103.862 97.5001 99.4618C104.3 95.0618 104.333 88.6285 103.5 85.9618C89.9001 77.9618 86.8334 77.6285 87.0001 78.4618C82.6001 84.0618 79.5001 86.4618 78.5001 86.9618C64.9001 82.5618 56.1667 70.4618 53.5001 64.9618C60.0001 57.9618 59.0001 56.9618 59.0001 56.4618C59.0001 55.9618 54.5001 41.9618 52.0001 40.4618Z" fill="white"/>
</svg>